<?xml version="1.0" standalone="no"?>
<!DOCTYPE svg PUBLIC "-//W3C//DTD SVG 20010904//EN"
 "http://www.w3.org/TR/2001/REC-SVG-20010904/DTD/svg10.dtd">
<svg version="1.0" xmlns="http://www.w3.org/2000/svg"
 width="681.000000pt" height="681.000000pt" viewBox="0 0 681.000000 681.000000"
 preserveAspectRatio="xMidYMid meet">
<metadata>
Created by potrace 1.11, written by Peter Selinger 2001-2013
</metadata>
<g transform="translate(0.000000,681.000000) scale(0.100000,-0.100000)"
fill="#000000" stroke="none">
<path d="M4 6793 c3 -10 8 -30 12 -45 5 -23 12 -28 35 -28 18 0 29 -5 29 -14
0 -8 7 -16 15 -20 8 -3 15 -15 15 -26 0 -21 35 -41 56 -33 6 2 15 35 18 74 4
38 10 69 14 69 19 -1 42 -30 42 -52 0 -14 7 -31 15 -38 11 -9 19 -7 40 13 l26
24 -31 46 -31 47 -105 0 c-57 0 -104 -2 -104 -5 0 -3 11 -10 25 -15 27 -10 31
-25 15 -50 -9 -12 -15 -9 -40 20 -16 19 -30 38 -30 43 0 4 -5 7 -11 7 -6 0 -8
-8 -5 -17z"/>
<path d="M1556 6764 c-22 -25 -32 -42 -24 -39 17 7 84 86 71 84 -4 0 -26 -21
-47 -45z"/>
<path d="M5266 6798 c4 -7 17 -26 29 -43 12 -16 53 -82 92 -145 40 -63 79
-124 87 -135 l16 -20 -7 20 c-21 62 -196 335 -214 335 -6 0 -7 -6 -3 -12z"/>
<path d="M5542 6748 c106 -125 181 -235 242 -357 21 -40 39 -71 42 -68 9 9
-65 157 -112 224 -137 195 -193 263 -216 263 -5 0 14 -28 44 -62z"/>
<path d="M4260 6748 c0 -13 4 -39 9 -58 46 -178 116 -584 136 -782 7 -70 25
-95 25 -35 0 35 -19 182 -45 340 -13 82 -23 132 -56 297 -18 88 -61 260 -65
260 -2 0 -4 -10 -4 -22z"/>
<path d="M2353 6676 c-29 -76 -61 -196 -78 -286 -12 -68 13 -6 39 96 14 55 38
139 54 187 15 48 25 87 22 87 -3 0 -20 -38 -37 -84z"/>
<path d="M1448 6629 c-34 -45 -80 -102 -100 -126 -21 -24 -38 -50 -38 -56 0
-7 -21 -50 -48 -97 -26 -47 -58 -110 -72 -140 -13 -30 -28 -60 -32 -66 -9 -12
-73 -2 -263 41 -66 15 -149 30 -185 32 -42 4 -73 12 -89 24 -25 20 -46 25 -36
9 3 -6 -1 -7 -9 -4 -22 8 -34 -26 -14 -40 8 -6 18 -20 22 -31 4 -14 25 -27 63
-40 33 -12 58 -26 60 -36 3 -10 11 -15 19 -12 11 4 12 9 4 18 -8 9 -6 14 6 19
21 8 45 -11 42 -33 -2 -10 6 -17 22 -19 14 -2 31 -9 38 -14 12 -11 69 -18 166
-21 29 -1 51 -7 53 -14 3 -7 13 -13 24 -13 25 0 24 -11 -9 -111 -16 -46 -37
-115 -46 -154 -10 -38 -21 -77 -24 -85 -3 -8 -6 -24 -7 -35 -4 -39 -55 -281
-75 -355 -56 -201 -344 -723 -539 -974 -48 -62 -81 -143 -81 -198 0 -50 50
-116 145 -191 52 -43 99 -77 104 -77 5 0 19 -8 32 -19 13 -10 35 -22 49 -26
14 -4 49 -18 77 -32 60 -27 74 -55 54 -109 -7 -19 -9 -38 -6 -44 10 -16 -5
-50 -21 -50 -10 0 -14 8 -12 21 3 18 -3 22 -34 24 -21 1 -38 -1 -38 -6 0 -4
-20 -19 -45 -33 -49 -29 -61 -45 -17 -23 42 22 99 28 112 12 8 -10 7 -14 -2
-18 -10 -4 -10 -8 1 -15 10 -7 19 -6 29 4 20 21 23 14 29 -60 4 -56 2 -66 -11
-66 -11 0 -19 12 -23 33 -6 30 -7 31 -13 8 -3 -14 -11 -26 -18 -29 -8 -2 -10
2 -5 14 5 14 3 16 -11 11 -10 -4 -30 -10 -44 -13 -15 -3 -37 -10 -49 -16 -28
-14 -36 -7 -36 32 0 21 -4 27 -11 20 -5 -5 -20 -10 -32 -10 -12 0 -24 -7 -28
-15 -6 -18 -2 -19 26 -4 28 15 41 -1 29 -33 -6 -16 -25 -31 -50 -42 -51 -20
-51 -20 -51 0 0 8 -5 12 -10 9 -6 -4 -8 -11 -4 -16 8 -14 -15 -39 -36 -39 -10
0 -21 7 -24 16 -8 21 -8 20 10 38 20 21 0 21 -31 0 -13 -9 -29 -13 -35 -9 -5
3 -23 -3 -39 -15 -27 -19 -31 -19 -39 -4 -8 14 -10 13 -16 -9 -6 -26 -42 -42
-70 -31 -11 4 -16 1 -16 -10 0 -9 -12 -21 -26 -26 -35 -14 -35 -14 -32 20 2
24 8 32 28 36 14 3 32 10 40 15 8 5 34 19 58 30 23 11 42 25 42 30 0 6 -3 9
-7 7 -93 -44 -149 -68 -162 -68 -17 0 -61 -31 -61 -42 0 -6 9 -8 20 -5 17 4
20 1 17 -19 -2 -13 -12 -30 -22 -38 -16 -11 -17 -18 -8 -37 11 -22 12 -22 13
-4 l1 20 9 -20 c14 -32 11 -42 -10 -48 -11 -3 -20 -13 -20 -22 0 -12 5 -15 21
-10 18 6 20 3 17 -27 -2 -21 -8 -33 -18 -33 -13 0 -15 -29 -18 -192 l-2 -193
32 19 c18 10 49 27 68 37 19 11 37 22 40 25 15 17 119 79 133 79 9 0 20 7 24
15 7 12 78 54 163 97 14 7 31 18 38 25 7 7 20 13 28 13 8 0 14 4 14 9 0 5 12
14 27 20 40 17 113 59 150 87 35 27 53 30 53 11 0 -18 -21 -37 -41 -37 -10 0
-19 -4 -21 -8 -1 -5 -30 -23 -63 -42 -33 -18 -62 -37 -65 -40 -3 -4 -25 -17
-50 -30 -25 -14 -54 -32 -65 -41 -11 -9 -43 -29 -72 -44 -28 -14 -57 -33 -64
-41 -6 -8 -16 -14 -22 -14 -5 0 -24 -10 -41 -23 -17 -13 -54 -35 -82 -49 -28
-13 -65 -34 -82 -46 -16 -12 -35 -22 -41 -22 -17 0 -61 -42 -61 -58 0 -13 3
-12 18 1 10 10 22 14 26 10 4 -4 12 0 17 8 5 9 21 20 36 24 15 3 38 17 51 30
13 14 34 27 46 31 11 4 35 18 53 31 17 14 33 23 35 22 2 -2 50 28 107 65 57
37 116 73 130 79 14 7 32 17 39 24 7 7 19 13 26 13 8 0 19 6 25 14 7 8 36 27
64 41 29 15 62 36 75 48 l22 20 0 -29 c0 -31 -15 -54 -36 -54 -16 0 -136 -71
-158 -93 -10 -9 -24 -17 -32 -17 -8 0 -14 -4 -14 -10 0 -5 -5 -10 -10 -10 -11
0 -109 -60 -98 -60 4 0 23 9 43 20 44 25 74 27 55 5 -7 -8 -18 -15 -26 -15 -7
0 -17 -6 -21 -14 -4 -7 -30 -28 -58 -45 -44 -28 -51 -30 -61 -16 -10 13 -16
14 -40 3 -40 -18 -74 -49 -74 -67 0 -14 -2 -14 -10 -1 -9 13 -12 13 -23 -1 -7
-9 -26 -19 -44 -23 -17 -4 -39 -16 -49 -27 -9 -10 -22 -19 -28 -19 -6 0 -28
-11 -47 -24 l-36 -25 -2 -87 c-2 -86 -2 -86 21 -80 13 3 30 6 38 6 12 1 12 3
-2 11 -19 11 -14 41 6 33 6 -2 31 12 54 32 23 19 42 33 42 30 0 -9 51 25 70
45 8 9 26 20 40 24 35 11 69 35 50 35 -13 0 -13 2 0 10 8 5 25 10 38 10 13 0
22 6 22 15 0 8 5 15 11 15 5 0 7 -6 3 -12 -4 -7 1 -5 12 4 11 9 40 26 64 37
25 11 45 24 45 28 1 14 37 63 46 63 5 0 43 25 84 55 41 31 75 54 75 51 0 -7
73 24 90 39 8 7 27 15 43 19 17 4 27 13 27 24 0 11 14 25 35 35 19 9 35 23 35
30 0 15 90 58 103 50 14 -8 -1 -298 -19 -388 -8 -44 -16 -134 -17 -200 l-2
-120 39 -80 c29 -59 57 -98 108 -148 l69 -68 6 -68 c5 -66 4 -71 -31 -128 -61
-99 -86 -188 -86 -307 0 -118 21 -196 76 -278 19 -27 34 -53 33 -57 0 -3 -27
-25 -59 -48 -74 -53 -142 -138 -177 -223 -22 -54 -27 -84 -31 -178 -4 -97 -1
-123 18 -183 12 -38 35 -89 51 -114 16 -25 29 -49 29 -53 0 -4 -28 -20 -62
-36 -130 -60 -228 -170 -273 -303 l-23 -68 300 -3 c166 -1 303 -1 305 1 1 2
39 143 83 313 100 388 97 379 115 394 8 7 15 22 16 34 0 11 11 44 23 71 l23
50 12 -28 c6 -16 11 -34 11 -41 0 -7 5 -27 11 -45 l11 -31 95 5 96 5 -7 -112
c-3 -62 -9 -197 -13 -301 -3 -103 -7 -186 -9 -184 -3 2 -13 77 -40 300 -3 27
-10 45 -14 40 -11 -11 23 -334 46 -445 l6 -28 128 0 129 0 6 38 c9 49 88 364
119 472 90 312 127 433 201 655 46 138 93 273 105 300 12 28 33 82 47 120 27
73 92 207 116 238 8 9 19 17 24 17 14 0 148 -139 228 -235 108 -130 338 -448
354 -490 5 -11 11 -50 15 -88 l7 -67 -28 0 -28 -1 28 -15 c21 -12 27 -22 27
-49 0 -24 -6 -39 -20 -47 -25 -16 -26 -31 -1 -23 11 3 21 2 24 -2 3 -4 6 -46
8 -93 l4 -85 -32 3 c-43 4 -42 -5 2 -24 31 -12 35 -19 35 -49 0 -28 -5 -38
-25 -47 -14 -6 -25 -15 -25 -20 0 -10 3 -10 33 1 24 10 25 9 36 -78 17 -133
16 -144 -13 -137 -13 3 -32 9 -41 13 -12 4 -16 2 -13 -7 2 -8 18 -18 36 -24
37 -13 42 -27 16 -41 -47 -25 -58 -34 -53 -40 4 -3 23 2 43 11 23 11 40 14 46
8 5 -5 12 -55 16 -112 7 -97 8 -102 29 -102 21 0 24 7 35 82 18 132 18 131 54
124 l31 -6 -27 23 c-39 32 -36 63 7 84 19 9 35 20 35 25 0 10 -3 10 -34 -2
-14 -5 -26 -6 -26 -1 0 8 22 122 35 187 4 17 10 20 32 17 l28 -5 -28 24 c-31
25 -29 51 4 69 22 12 26 34 4 25 -20 -7 -20 40 1 133 16 69 17 71 43 65 l26
-5 -22 19 c-25 22 -31 70 -11 90 6 6 12 35 13 64 3 93 74 202 274 423 30 33
70 78 89 100 20 22 65 72 101 110 73 77 144 159 188 217 29 39 59 56 74 41 8
-8 42 -166 129 -603 22 -113 52 -254 65 -315 41 -186 106 -536 103 -547 -2 -6
-25 56 -50 138 -45 144 -63 207 -113 397 -13 49 -26 91 -29 95 -14 14 -13 -8
4 -78 44 -186 208 -724 236 -778 7 -15 18 -52 25 -82 6 -30 15 -72 20 -93 l10
-37 162 2 162 3 12 125 c6 69 14 202 18 295 5 98 13 181 20 195 13 28 41 142
91 385 l34 160 -5 -90 c-3 -49 -15 -174 -27 -277 -12 -103 -19 -190 -16 -193
8 -8 93 14 145 37 38 17 44 24 57 71 8 29 20 88 26 132 7 44 16 84 20 88 7 8
62 -132 98 -253 17 -58 136 -532 159 -635 l9 -40 146 -3 147 -3 -15 31 c-28
55 11 102 83 102 59 0 92 -58 63 -113 -10 -18 -7 -19 61 -19 l71 0 -6 28 c-14
55 -64 148 -107 196 -47 53 -170 139 -214 150 -16 4 -25 12 -21 19 69 157 84
231 69 353 -15 118 -64 217 -151 301 -35 34 -77 68 -93 75 -16 7 -29 16 -29
21 0 4 18 36 40 70 59 91 82 158 87 263 5 76 2 104 -17 165 -27 91 -36 109
-95 187 -26 35 -46 64 -44 66 2 2 24 14 49 26 169 85 374 278 461 435 22 38
51 107 65 153 40 130 37 241 -21 746 -14 120 -25 243 -25 271 l0 53 37 7 c48
9 171 57 258 102 203 104 284 196 272 310 -6 56 -34 104 -117 203 -208 246
-365 536 -406 750 -23 125 -24 159 -6 170 15 8 14 9 -5 10 -16 0 -23 6 -23 20
0 11 6 20 13 20 9 0 9 2 -1 8 -11 8 -15 172 -11 467 2 109 -6 295 -12 295 -12
0 -18 -44 -20 -148 -1 -56 -6 -105 -11 -108 -5 -3 -8 -32 -7 -63 3 -90 -23
-110 -36 -28 -12 74 -114 422 -160 546 -25 65 -45 123 -45 128 0 6 -9 18 -20
28 -24 21 -25 14 -6 -24 26 -48 104 -273 135 -386 66 -240 85 -330 126 -575
45 -275 86 -457 125 -557 11 -29 18 -53 15 -53 -2 0 -40 28 -83 63 -372 294
-670 500 -865 599 -121 60 -113 40 10 -26 59 -32 133 -75 163 -96 228 -152
327 -223 565 -405 179 -136 260 -214 294 -286 21 -44 32 -62 81 -131 14 -20
44 -62 66 -94 23 -33 71 -95 108 -138 177 -213 157 -301 -108 -461 -103 -63
-310 -144 -321 -126 -13 22 -40 737 -28 744 11 7 157 -85 200 -126 18 -16 29
-35 26 -40 -4 -6 0 -8 10 -4 11 4 36 -10 72 -39 64 -52 79 -75 62 -93 -9 -10
-8 -12 7 -9 19 3 24 -4 46 -57 17 -40 24 -17 10 33 -14 53 -79 124 -192 209
-109 81 -476 319 -598 387 -47 26 -96 54 -110 62 -14 8 -68 37 -122 64 -576
294 -1105 456 -1768 542 -125 16 -639 15 -795 -1 -291 -30 -487 -64 -730 -124
-386 -97 -764 -232 -1060 -379 -279 -139 -544 -342 -682 -523 -70 -92 -90
-166 -61 -230 18 -39 26 -30 20 24 -9 97 -3 110 126 266 30 35 67 70 83 77 16
7 29 18 29 25 0 10 159 145 197 166 6 4 31 -5 55 -20 24 -16 52 -33 63 -39 19
-11 20 -22 22 -422 l1 -410 -36 5 c-203 29 -428 128 -564 247 -106 93 -128
136 -109 220 13 58 22 73 162 268 53 73 106 152 118 176 12 24 37 67 55 95 18
29 68 120 110 202 69 136 81 154 129 188 273 199 701 423 1051 548 377 136
912 207 1461 195 417 -9 608 -29 875 -92 80 -19 156 -36 170 -40 l25 -5 -25
14 c-68 39 -452 112 -668 128 -234 16 -764 13 -962 -6 -422 -41 -713 -106
-1019 -228 -258 -102 -651 -310 -846 -447 -100 -70 -98 -73 -50 60 15 41 42
149 60 240 103 510 255 878 488 1179 31 40 57 75 57 77 0 12 -14 -3 -72 -77z
m-833 -449 c3 -5 -1 -10 -9 -10 -9 0 -16 5 -16 10 0 6 4 10 9 10 6 0 13 -4 16
-10z m2997 -918 c42 -4 80 -11 84 -15 11 -10 21 -184 33 -537 6 -173 14 -392
17 -486 4 -129 3 -174 -6 -179 -7 -4 -52 -10 -101 -13 -72 -4 -89 -2 -89 9 0
39 -33 456 -44 548 -12 106 -12 106 -19 -209 -4 -173 -10 -325 -13 -337 l-6
-23 -273 0 -272 0 -12 98 c-15 127 -38 486 -47 732 -7 194 -20 300 -24 195 -1
-27 -1 -238 0 -467 1 -229 -1 -421 -4 -426 -6 -11 -227 15 -240 28 -12 12 -14
873 -3 943 7 37 12 47 27 47 10 0 22 5 25 10 3 6 -2 10 -11 10 -11 0 -14 3 -8
9 5 5 88 19 184 31 247 32 631 47 802 32z m239 -23 c86 -12 119 -22 119 -39 0
-6 -13 -10 -30 -10 -35 0 -41 -19 -7 -21 12 -1 25 -1 30 0 15 2 25 -48 40
-214 24 -250 37 -469 40 -655 l2 -164 -49 -8 c-27 -4 -54 -12 -60 -18 -7 -7
-1 -9 22 -5 18 3 46 7 63 10 l30 5 -3 -48 -3 -47 -71 -14 c-39 -8 -78 -12 -86
-9 -11 5 -17 28 -22 85 -38 449 -100 1024 -123 1136 -6 32 -9 31 108 16z m225
-44 c16 -12 16 -14 3 -15 -31 0 -79 13 -79 21 0 14 55 10 76 -6z m159 -20
c235 -49 623 -163 723 -212 44 -22 46 -28 63 -246 12 -162 8 -679 -7 -725 -5
-18 -12 -22 -28 -17 -11 3 -52 12 -90 19 -37 8 -72 18 -76 23 -5 4 -13 67 -19
138 -15 172 -42 409 -47 414 -7 7 -4 -67 6 -179 24 -261 30 -364 23 -371 -4
-4 -20 -5 -34 -2 -25 5 -26 6 -38 141 -13 158 -34 341 -56 492 -24 161 -25
170 -33 170 -4 0 -4 -42 1 -92 13 -155 12 -649 -2 -676 -12 -22 -12 -23 -189
-17 -230 8 -224 6 -220 53 l3 37 123 3 c159 3 153 22 -8 22 l-118 0 -6 63 c-3
34 -15 170 -27 302 -11 132 -25 296 -29 365 -5 69 -14 153 -21 188 -6 35 -9
66 -5 69 15 16 314 -109 332 -139 8 -13 24 -9 24 7 0 16 -229 132 -282 142
-34 6 -88 30 -88 38 0 9 55 5 125 -10z m-1672 -352 c-3 -207 -1 -407 5 -493 6
-80 8 -148 4 -151 -4 -3 -34 -3 -66 -1 l-59 4 7 362 c9 402 17 591 28 602 4 4
25 10 45 14 21 4 39 8 40 9 1 0 -1 -155 -4 -346z m1545 248 c7 -42 16 -125 22
-186 5 -60 16 -184 25 -275 8 -91 18 -229 21 -307 8 -156 11 -147 -57 -156
l-36 -5 -12 196 c-24 394 -46 660 -67 793 l-5 36 49 -9 49 -10 11 -77z m-318
-386 c11 -126 25 -273 30 -325 6 -52 15 -153 20 -223 4 -71 14 -134 20 -142 6
-7 26 -13 44 -13 19 0 43 -5 56 -12 20 -11 20 -13 6 -29 -9 -10 -16 -25 -16
-34 0 -15 -24 -37 -66 -63 -27 -17 -12 -26 21 -14 23 9 149 18 260 19 11 1 37
1 57 1 41 0 54 -20 43 -69 -12 -54 -70 -91 -143 -91 -52 0 -102 27 -102 56 0
27 -18 14 -23 -18 -24 -138 -11 -251 39 -336 37 -63 112 -133 178 -165 49 -24
66 -27 158 -27 85 0 113 5 161 24 115 48 183 116 228 231 20 52 23 77 23 180
0 92 -4 127 -17 152 -19 35 -12 45 24 37 13 -3 55 -7 93 -8 43 -3 72 -9 78
-17 5 -8 7 -58 4 -114 -5 -100 -35 -226 -71 -295 -25 -49 -10 -48 21 2 49 76
104 288 104 397 0 12 2 13 13 2 15 -15 14 -579 -2 -868 -11 -209 -17 -226
-119 -354 -215 -271 -571 -474 -960 -548 -319 -61 -686 -66 -972 -15 -294 54
-626 194 -855 364 -221 164 -347 413 -409 810 -26 165 -49 392 -50 494 l-1 99
50 13 c77 20 85 19 85 -17 0 -79 68 -334 85 -317 3 3 -4 40 -16 84 -21 81 -32
207 -22 257 8 38 29 47 135 53 51 3 96 8 101 11 12 7 74 14 152 16 64 2 70 0
82 -22 15 -31 -5 -85 -43 -118 -57 -51 -194 -6 -194 65 0 14 -5 22 -12 20 -35
-12 -60 -197 -38 -289 32 -135 112 -239 228 -296 73 -36 80 -38 177 -38 89 0
105 3 150 27 72 38 111 70 146 118 47 65 61 114 61 221 1 102 -13 181 -43 241
-11 21 -19 39 -19 40 0 6 105 1 145 -6 l40 -8 -30 20 c-44 28 -57 47 -57 87 0
19 -4 38 -9 41 -17 10 -9 22 20 29 l30 6 -4 182 c-3 160 -3 170 5 82 5 -55 15
-137 21 -181 l11 -82 46 -4 c26 -3 154 -4 284 -4 174 1 240 4 249 13 9 9 14
67 17 184 3 95 8 166 12 158 4 -8 11 -81 14 -163 4 -83 12 -158 18 -169 9 -17
18 -18 106 -12 53 4 101 9 105 12 9 6 7 413 -3 648 -5 94 -10 242 -13 330 l-4
160 18 -125 c10 -69 27 -228 39 -355z m-1420 461 c0 -2 -26 -14 -57 -26 -60
-24 -181 -98 -203 -125 -28 -34 2 -24 64 20 56 39 173 95 254 119 l22 7 -6
-218 c-3 -120 -9 -337 -13 -483 l-6 -265 -45 -3 c-66 -3 -110 -12 -110 -21 0
-4 36 -6 81 -3 l80 5 -3 -39 -3 -39 -195 -6 c-107 -3 -212 -9 -232 -13 -36 -8
-37 -7 -42 26 -17 107 -26 880 -11 938 7 29 18 32 265 94 136 34 160 39 160
32z m-485 -148 c-7 -32 -34 -240 -33 -258 0 -8 -4 -103 -10 -210 -6 -107 -14
-278 -17 -380 l-7 -185 -34 -53 c-32 -48 -64 -72 -99 -72 -16 0 -22 79 -35
425 -8 229 -8 225 -3 -80 3 -176 6 -338 7 -360 1 -38 -1 -40 -32 -43 -26 -3
-34 1 -41 20 -12 31 -59 454 -71 638 -5 80 -10 213 -10 296 0 136 2 152 18
157 9 3 51 18 92 33 290 107 283 105 275 72z m37 -403 c2 -201 3 -407 3 -457
l0 -93 -44 -3 -43 -3 6 138 c17 360 29 537 42 638 7 61 14 118 14 128 0 9 5
17 10 17 6 0 11 -130 12 -365z m3193 306 c164 -68 248 -106 385 -177 80 -42
151 -81 158 -88 18 -17 21 -57 23 -266 1 -194 -14 -559 -32 -745 -11 -128 -38
-328 -45 -334 -2 -2 -5 92 -5 210 -3 410 -14 365 -21 -81 -9 -573 -29 -882
-94 -1445 -31 -269 -43 -366 -49 -385 -2 -8 -14 -87 -26 -175 -12 -88 -24
-180 -28 -205 l-7 -45 -8 48 c-6 31 -5 52 3 61 13 15 11 107 -2 99 -5 -3 -5
-23 -2 -44 4 -25 3 -39 -4 -39 -6 0 -8 7 -5 15 4 10 0 15 -15 15 -12 0 -21 -6
-21 -16 0 -25 -33 -12 -41 16 -6 22 -7 23 -8 4 -1 -12 -8 -27 -16 -34 -8 -7
-15 -28 -15 -46 0 -19 -4 -34 -9 -34 -9 0 -7 31 9 155 16 120 24 255 25 395 0
143 -11 172 -31 78 -11 -52 -11 -52 -16 -18 -5 34 -5 34 -6 -7 -1 -24 2 -43 7
-43 12 0 3 -65 -14 -105 -16 -37 -28 -121 -61 -423 l-18 -163 -39 3 c-21 1
-42 8 -46 16 -6 11 -10 5 -13 -20 -3 -31 -2 -34 19 -30 13 2 23 -1 23 -7 0 -6
-7 -11 -15 -11 -10 0 -15 -10 -15 -31 0 -20 -4 -29 -12 -26 -10 3 -12 33 -11
113 l2 109 -14 -64 c-8 -36 -12 -76 -10 -90 5 -22 4 -23 -4 -6 -7 16 -10 17
-14 5 -15 -42 -17 -40 -12 20 2 36 7 144 10 240 6 161 22 464 45 830 5 80 12
251 16 380 3 129 7 264 9 300 2 36 7 273 11 528 7 439 8 462 26 462 24 0 23
17 -1 25 -11 3 -24 16 -28 28 -4 12 -7 216 -5 452 1 313 -2 456 -11 528 -9 67
-10 97 -3 97 6 0 43 -13 81 -29z m-3636 -128 c4 -235 32 -592 72 -911 13 -108
15 -112 54 -112 l32 0 7 -108 c6 -104 18 -215 50 -472 8 -63 20 -200 26 -305
6 -104 20 -302 31 -440 12 -137 21 -292 22 -342 1 -51 5 -93 8 -93 3 0 9 -57
12 -127 4 -71 10 -138 13 -151 4 -13 2 -22 -5 -22 -6 0 -11 16 -11 35 0 19 -3
35 -8 35 -4 0 -6 17 -4 38 2 21 -3 50 -12 67 l-16 30 0 -40 c0 -29 3 -36 10
-25 7 11 10 8 9 -15 -1 -42 -16 -134 -18 -110 -1 14 -4 16 -9 8 -4 -7 -5 -50
-1 -95 4 -46 13 -159 19 -253 6 -93 13 -201 16 -240 l5 -70 -17 33 c-14 26
-22 32 -50 32 -24 0 -34 -5 -34 -15 0 -21 -18 -19 -32 5 -17 26 -58 27 -58 1
0 -10 -7 -21 -15 -25 -16 -6 -19 2 -35 104 -5 36 -19 112 -30 170 -18 95 -32
186 -59 370 -10 64 -34 308 -47 464 -3 47 -10 74 -15 69 -10 -10 2 -180 33
-458 11 -99 21 -207 24 -240 l4 -60 -18 59 c-10 33 -24 62 -31 64 -10 3 -11
-19 -4 -109 4 -63 8 -149 7 -191 0 -42 3 -75 8 -72 4 3 7 -25 6 -63 l-1 -68
-7 60 c-4 33 -8 51 -9 40 -2 -13 -7 -7 -13 19 -8 28 -7 40 1 46 9 5 9 20 2 56
l-10 49 4 -47 c2 -26 0 -50 -5 -53 -6 -4 -10 10 -11 32 l-1 38 -9 -30 c-4 -16
-12 -46 -17 -65 -12 -47 -18 -28 -31 110 -6 63 -15 162 -21 220 -5 58 -14 173
-20 255 -6 83 -13 175 -15 205 -10 122 -35 550 -45 795 -6 143 -15 328 -20
410 -7 134 -8 124 -4 -90 2 -132 6 -316 9 -410 5 -154 4 -167 -9 -140 -9 17
-15 40 -16 53 0 12 -5 22 -10 22 -12 0 -7 -27 25 -130 19 -59 26 -117 36 -273
6 -109 9 -200 6 -203 -10 -11 -98 70 -126 116 -15 25 -38 72 -51 105 -31 75
-31 177 0 345 28 155 33 448 14 960 -8 217 -12 424 -9 460 2 36 7 184 11 330
6 255 7 266 28 282 26 22 55 32 64 23 4 -3 9 -176 12 -383 l5 -377 8 290 c4
160 7 334 7 388 -1 53 2 102 6 108 11 19 232 117 265 118 14 1 17 -13 18 -86z
m-439 -160 c0 -68 -8 -77 -52 -59 -55 23 -55 42 0 76 26 16 48 30 50 30 1 0 2
-21 2 -47z m4759 -54 c98 -57 248 -153 272 -173 19 -16 25 -87 39 -481 6 -154
12 -302 14 -330 3 -27 8 -84 11 -125 4 -41 17 -165 30 -275 44 -377 49 -443
37 -532 -21 -151 -80 -283 -184 -410 -93 -115 -251 -242 -358 -291 -51 -23
-136 -52 -151 -52 -21 0 4 42 59 98 127 127 267 335 260 384 -2 18 -11 7 -37
-47 -19 -39 -58 -101 -86 -140 -58 -79 -173 -200 -181 -192 -5 5 8 152 37 403
5 50 17 214 25 365 8 151 19 310 23 354 5 44 21 181 35 305 35 309 46 491 53
868 3 177 8 322 11 322 2 0 43 -23 91 -51z m-1105 -441 c7 -98 4 -109 -25 -85
-13 10 -15 38 -10 177 l4 165 12 -80 c7 -44 15 -124 19 -177z m-2116 -10 l3
-38 -65 0 -66 0 0 40 0 41 63 -3 62 -3 3 -37z m195 25 l67 -6 0 -44 c0 -43 -1
-44 -27 -39 -16 3 -66 10 -112 15 -86 9 -101 18 -101 57 0 31 11 37 60 30 25
-4 75 -9 113 -13z m1407 -52 c0 -35 -3 -39 -31 -45 -64 -13 -69 -10 -69 38 l0
45 43 3 c56 4 57 3 57 -41z m850 -213 c0 -19 -2 -20 -10 -8 -13 19 -13 30 0
30 6 0 10 -10 10 -22z m-3285 -58 c-46 -21 -65 -24 -65 -10 0 10 53 28 85 28
13 0 5 -6 -20 -18z m699 -154 c-1 -126 -7 -157 -27 -137 -8 8 -12 47 -12 114
1 118 10 166 28 148 8 -8 12 -50 11 -125z m1942 88 c9 -49 0 -216 -14 -240
-10 -19 -11 -19 -19 1 -10 26 -10 189 0 238 10 47 24 48 33 1z m-3537 -50 c2
-2 -2 -10 -9 -19 -20 -23 -40 -18 -40 11 0 22 3 24 23 18 12 -3 24 -8 26 -10z
m31 -15 c0 -8 13 -9 39 -5 43 6 60 -6 42 -28 -9 -10 -7 -15 6 -20 10 -4 20 -1
25 9 10 16 38 21 38 6 0 -5 -6 -12 -12 -14 -7 -3 -4 -6 7 -6 16 -1 15 -4 -9
-16 -21 -11 -31 -12 -36 -4 -5 7 -9 3 -12 -9 -5 -19 -59 -52 -85 -52 -29 0 -5
49 32 65 18 7 17 9 -10 14 -21 5 -30 12 -30 26 0 11 -4 26 -8 33 -5 7 -4 12 2
12 6 0 11 -5 11 -11z m-34 -74 c-5 -14 -9 -15 -21 -5 -12 10 -13 16 -4 27 15
18 34 1 25 -22z m4 -66 c0 -10 -2 -19 -4 -19 -2 0 -11 -3 -20 -6 -19 -7 -22
26 -4 44 15 15 28 6 28 -19z m106 -35 c-7 -19 -22 -18 -30 3 -5 11 0 22 11 31
15 11 18 11 21 -3 2 -9 1 -23 -2 -31z m-46 6 c0 -5 -4 -10 -10 -10 -5 0 -10 5
-10 10 0 6 5 10 10 10 6 0 10 -4 10 -10z m-60 -30 c0 -6 -9 -20 -20 -32 l-20
-22 0 26 c0 24 10 35 33 37 4 1 7 -4 7 -9z m3745 -38 c31 -22 42 -37 49 -70 8
-37 6 -46 -13 -66 -12 -13 -52 -38 -88 -56 -120 -58 -257 -52 -365 16 -49 31
-54 54 -26 105 38 67 55 74 106 39 51 -34 137 -49 181 -30 16 6 46 29 68 51
21 21 40 39 43 38 3 0 23 -12 45 -27z m-3635 8 c0 -5 -5 -10 -11 -10 -5 0 -7
5 -4 10 3 6 8 10 11 10 2 0 4 -4 4 -10z m1687 -5 c25 -7 31 -21 35 -82 3 -53
-17 -76 -109 -123 -91 -47 -174 -49 -278 -7 -85 35 -103 50 -111 93 -5 27 -1
41 19 68 40 51 70 54 118 11 36 -33 44 -35 105 -35 75 0 113 16 144 60 14 19
28 29 38 26 10 -2 27 -7 39 -11z m-2072 -95 c-3 -5 -11 -10 -16 -10 -6 0 -7 5
-4 10 3 6 11 10 16 10 6 0 7 -4 4 -10z m-239 -42 c0 -22 -12 -38 -28 -38 -13
0 -9 48 5 53 21 9 23 8 23 -15z m194 -2 c0 -28 -20 -39 -35 -20 -7 10 -15 11
-25 4 -10 -6 -11 -10 -2 -10 6 0 12 -4 12 -10 0 -5 -9 -10 -20 -10 -32 0 -24
34 13 53 45 22 57 21 57 -7z m32 -8 c-9 -9 -12 -7 -12 12 0 19 3 21 12 12 9
-9 9 -15 0 -24z m-312 -28 c0 -11 -4 -20 -8 -20 -4 0 -8 9 -8 20 0 11 4 20 8
20 4 0 8 -9 8 -20z m160 2 c0 -20 -39 -47 -51 -35 -10 10 0 26 26 41 26 15 25
15 25 -6z m-130 -1 c0 -6 -4 -13 -10 -16 -5 -3 -10 1 -10 9 0 9 5 16 10 16 6
0 10 -4 10 -9z m300 -16 c0 -8 -7 -15 -15 -15 -8 0 -15 7 -15 15 0 8 7 15 15
15 8 0 15 -7 15 -15z m480 -3 c0 -10 -5 -23 -12 -30 -9 -9 -9 -12 0 -12 21 0
13 -30 -15 -55 -23 -20 -25 -24 -10 -25 30 0 19 -17 -26 -39 -53 -26 -75 -28
-57 -6 20 24 -4 18 -50 -12 -33 -22 -40 -32 -36 -49 5 -17 1 -24 -15 -29 -29
-10 -39 9 -39 77 0 48 3 58 20 63 11 3 44 26 74 51 30 24 61 44 68 44 7 0 24
9 38 20 32 25 60 26 60 2z m-887 1 c2 -5 -2 -18 -8 -31 -11 -21 -13 -21 -17
-5 -8 31 12 60 25 36z m164 -56 c-7 -10 -16 -19 -22 -20 -15 -3 -18 41 -3 56
11 12 15 12 25 -2 9 -12 9 -20 0 -34z m-215 12 c-3 -23 -35 -59 -53 -59 -19 0
-9 58 14 73 29 21 43 16 39 -14z m-36 -115 c-3 -9 -6 -18 -6 -20 0 -2 -4 -4
-9 -4 -5 0 -7 9 -4 20 3 11 10 20 15 20 6 0 7 -7 4 -16z m1733 -374 c49 -102
73 -141 124 -208 49 -63 162 -166 204 -185 13 -5 23 -13 23 -16 0 -4 25 -20
55 -36 43 -23 55 -35 55 -54 0 -13 -22 -68 -50 -124 -27 -55 -48 -103 -45
-106 9 -8 34 31 82 129 25 52 47 96 48 98 4 4 105 -49 105 -55 0 -14 -70 -103
-133 -167 -26 -27 -46 -54 -44 -59 5 -16 132 108 167 163 34 52 39 56 68 41 9
-5 41 -19 70 -32 51 -22 52 -24 52 -64 0 -30 -6 -44 -21 -55 -11 -8 -44 -32
-72 -54 -88 -65 -235 -119 -365 -132 -74 -8 -80 3 -17 34 25 12 45 26 45 32 0
16 -14 12 -65 -17 -92 -51 -252 -39 -274 20 -5 12 -18 151 -30 307 -12 157
-26 328 -31 380 -5 52 -12 136 -15 185 -3 50 -8 113 -10 140 -4 49 -4 49 19
-25 13 -41 37 -104 55 -140z m3196 -112 c-3 -40 -9 -183 -15 -318 -5 -135 -13
-282 -16 -327 l-6 -82 -72 -13 c-90 -17 -320 -16 -410 1 -37 8 -98 24 -135 37
-75 26 -74 25 -51 141 12 61 12 61 63 83 29 12 82 40 119 61 36 22 69 39 72
39 3 0 18 -24 32 -52 43 -85 211 -242 282 -263 36 -10 25 9 -18 34 -95 53
-222 184 -255 264 l-15 36 72 53 c117 88 121 91 184 155 33 34 85 98 115 142
30 44 55 81 56 81 2 0 1 -33 -2 -72z m-4925 -52 c0 -3 -4 -8 -10 -11 -5 -3
-10 -1 -10 4 0 6 5 11 10 11 6 0 10 -2 10 -4z m4196 -503 c-14 -90 -27 -111
-152 -254 -70 -79 -152 -171 -183 -204 -31 -33 -82 -89 -113 -125 -31 -36 -75
-85 -98 -110 -56 -61 -150 -184 -150 -197 0 -6 -7 -13 -14 -16 -21 -8 -30 65
-22 167 7 99 20 145 48 181 17 21 27 26 49 21 26 -5 29 -3 34 32 12 78 57 203
89 245 32 42 46 47 91 32 18 -5 23 2 40 51 10 31 31 73 45 93 23 31 36 38 89
49 55 12 65 11 80 -2 13 -12 20 -13 29 -4 7 7 12 17 12 23 0 13 84 52 114 54
16 1 18 -4 12 -36z m-1626 -18 c28 -30 46 -32 53 -6 5 20 6 20 67 1 34 -10 63
-20 65 -22 15 -19 85 -138 85 -145 0 -6 7 -16 15 -23 13 -11 15 -7 15 29 0 22
4 41 9 41 31 0 126 -197 152 -312 12 -59 27 -74 36 -38 3 11 11 20 19 20 22 0
41 -48 58 -149 17 -98 22 -291 8 -291 -4 0 -16 15 -27 32 -44 75 -308 424
-381 503 -163 178 -175 197 -199 297 -23 98 -18 109 25 63z m391 -61 c36 -3
72 -10 79 -14 19 -12 5 -37 -32 -60 -45 -27 -72 -26 -86 5 -12 26 -55 35 -68
14 -6 -10 -64 65 -64 83 0 3 23 0 52 -7 28 -8 82 -17 119 -21z m874 -4 c-14
-15 -21 -17 -31 -9 -19 16 -8 29 23 29 25 0 26 0 8 -20z m-1290 -50 c20 -60
15 -73 -23 -59 -15 6 -51 11 -80 11 -62 1 -125 -29 -281 -130 -52 -34 -98 -62
-102 -62 -5 0 -12 15 -17 33 -6 17 -13 40 -17 49 -5 14 3 17 52 23 117 14 250
64 348 130 49 34 93 60 97 58 3 -2 14 -26 23 -53z m1233 32 l33 -29 -17 -36
c-15 -31 -21 -35 -44 -31 -21 5 -34 -2 -68 -38 -47 -48 -78 -119 -94 -215 -10
-58 -12 -62 -43 -67 -25 -5 -36 -16 -53 -50 -32 -64 -52 -214 -40 -301 13 -94
13 -87 -2 -150 -15 -64 -16 -65 -93 -97 -57 -24 -61 -24 -113 -10 -33 9 -59
23 -65 35 -6 10 -10 60 -8 110 4 200 -2 322 -21 399 -24 98 -45 131 -76 124
-20 -5 -25 -2 -29 21 -14 65 -29 110 -56 167 -16 33 -29 63 -29 67 0 4 11 10
25 13 14 4 43 25 65 47 l40 41 252 4 c139 2 282 8 318 12 36 5 70 10 75 11 6
0 25 -12 43 -27z m732 -122 c19 -6 12 -8 -30 -9 -30 0 -62 4 -70 9 -19 12 62
12 100 0z m240 -4 c0 -6 -67 -119 -82 -138 -12 -15 -21 -12 -98 38 -47 30 -86
59 -88 64 -2 6 11 10 30 11 18 0 58 7 88 14 52 12 150 19 150 11z m739 -41
c32 -16 41 -33 41 -75 0 -44 -10 -59 -52 -81 -33 -17 -42 -18 -65 -7 -14 7
-26 18 -25 23 4 89 15 133 35 143 30 14 34 14 66 -3z m-3802 -142 c-3 -10 -5
-2 -5 17 0 19 2 27 5 18 2 -10 2 -26 0 -35z m3480 25 c-3 -8 -6 -5 -6 6 -1 11
2 17 5 13 3 -3 4 -12 1 -19z m-3450 -50 c-3 -7 -5 -2 -5 12 0 14 2 19 5 13 2
-7 2 -19 0 -25z m69 -285 c-11 -11 -17 4 -9 23 7 18 8 18 11 1 2 -10 1 -21 -2
-24z m-511 -93 c-2 -69 -15 -76 -15 -7 0 32 4 57 8 57 5 0 8 -22 7 -50z m3915
-12 c0 -28 -3 -48 -7 -45 -9 10 -11 107 -1 101 4 -3 8 -28 8 -56z m-59 -91
c-13 -13 -14 5 -3 43 l7 25 3 -29 c2 -16 -1 -33 -7 -39z m-3874 -44 c-3 -10
-5 -4 -5 12 0 17 2 24 5 18 2 -7 2 -21 0 -30z m76 -23 c3 -11 1 -20 -4 -20 -5
0 -9 9 -9 20 0 11 2 20 4 20 2 0 6 -9 9 -20z m154 -52 c-3 -7 -5 -2 -5 12 0
14 2 19 5 13 2 -7 2 -19 0 -25z m3540 10 c-3 -8 -6 -5 -6 6 -1 11 2 17 5 13 3
-3 4 -12 1 -19z m193 12 c0 -5 -4 -10 -10 -10 -5 0 -10 5 -10 10 0 6 5 10 10
10 6 0 10 -4 10 -10z m-3953 -22 c-3 -8 -6 -5 -6 6 -1 11 2 17 5 13 3 -3 4
-12 1 -19z m-72 -24 c29 -32 30 -42 9 -87 -18 -37 -70 -63 -104 -52 -27 9 -60
53 -60 82 0 14 13 37 29 54 39 39 92 40 126 3z m3800 5 c-5 -13 -2 -25 6 -29
10 -7 10 -14 2 -32 l-12 -23 0 28 c-1 17 -6 27 -16 27 -14 0 -13 3 1 25 20 31
28 32 19 4z m-3298 -21 c-3 -8 -6 -5 -6 6 -1 11 2 17 5 13 3 -3 4 -12 1 -19z
m-190 -30 c-3 -8 -6 -5 -6 6 -1 11 2 17 5 13 3 -3 4 -12 1 -19z m3369 -56
c-13 -12 -17 8 -9 44 l8 39 3 -39 c2 -21 1 -41 -2 -44z m371 56 c-3 -8 -6 -5
-6 6 -1 11 2 17 5 13 3 -3 4 -12 1 -19z m-140 -30 c-3 -7 -5 -2 -5 12 0 14 2
19 5 13 2 -7 2 -19 0 -25z m-1683 -5 c-9 -37 -9 -37 -46 -27 -41 12 -45 27
-11 41 51 20 64 16 57 -14z m2226 2 c28 -30 31 -88 6 -113 -24 -25 -91 -21
-118 5 -31 31 -28 80 6 110 36 30 76 30 106 -2z m-2402 -4 c17 -10 -1 -25 -40
-35 -25 -6 -28 -4 -28 19 0 21 5 25 28 25 15 0 33 -4 40 -9z m-1948 -50 c0
-16 3 -44 6 -62 4 -23 2 -29 -4 -19 -14 23 -23 110 -12 110 6 0 10 -13 10 -29z
m27 -3 c-3 -7 -5 -2 -5 12 0 14 2 19 5 13 2 -7 2 -19 0 -25z m2043 16 c22 -9
40 -21 40 -28 0 -38 -42 -221 -52 -228 -28 -17 -80 -20 -116 -6 -33 12 -38 19
-44 58 -3 25 -7 76 -7 113 l-1 68 43 19 c52 24 85 25 137 4z m1597 -16 c-3 -7
-5 -2 -5 12 0 14 2 19 5 13 2 -7 2 -19 0 -25z m-3419 -42 c0 -24 3 -49 6 -55
4 -6 2 -11 -3 -11 -6 0 -11 8 -12 18 -1 9 -3 34 -4 55 -2 20 0 37 5 37 5 0 9
-20 8 -44z m3679 7 c-3 -10 -5 -4 -5 12 0 17 2 24 5 18 2 -7 2 -21 0 -30z
m-3837 -4 c0 -5 -4 -9 -10 -9 -5 0 -10 7 -10 16 0 8 5 12 10 9 6 -3 10 -10 10
-16z m3712 -24 c-6 -34 -12 -32 -12 6 0 16 4 28 9 25 4 -3 6 -17 3 -31z m-235
-17 c-3 -7 -5 -2 -5 12 0 14 2 19 5 13 2 -7 2 -19 0 -25z m-3474 2 c4 -15 0
-20 -14 -20 -17 0 -18 3 -7 20 7 11 13 20 14 20 1 0 4 -9 7 -20z m232 5 c50
-14 50 -14 13 -14 -41 -1 -68 7 -68 20 0 5 1 9 3 9 1 -1 25 -7 52 -15z m3352
-7 c-3 -8 -6 -5 -6 6 -1 11 2 17 5 13 3 -3 4 -12 1 -19z m232 -29 c-19 -12
-24 -2 -8 17 9 11 14 13 17 4 3 -7 -2 -16 -9 -21z m-3474 11 c3 -5 -1 -10 -9
-10 -9 0 -16 5 -16 10 0 6 4 10 9 10 6 0 13 -4 16 -10z m3352 -67 c-3 -10 -5
-2 -5 17 0 19 2 27 5 18 2 -10 2 -26 0 -35z m-130 5 c-3 -8 -6 -5 -6 6 -1 11
2 17 5 13 3 -3 4 -12 1 -19z m-97 -33 c0 -19 -4 -35 -8 -35 -4 0 -6 16 -4 35
2 19 6 35 8 35 2 0 4 -16 4 -35z m317 19 c-3 -3 -12 -4 -19 -1 -8 3 -5 6 6 6
11 1 17 -2 13 -5z m-250 -40 c-3 -3 -12 -4 -19 -1 -8 3 -5 6 6 6 11 1 17 -2
13 -5z m-1672 -53 c19 -8 18 -9 -8 -22 -24 -11 -30 -11 -37 1 -17 27 5 37 45
21z m105 -7 c0 -8 -4 -12 -10 -9 -5 3 -10 10 -10 16 0 5 5 9 10 9 6 0 10 -7
10 -16z m-25 -24 c22 -8 26 -15 21 -38 -2 -15 -13 -69 -22 -120 -15 -82 -21
-95 -46 -114 -22 -15 -32 -18 -41 -9 -12 12 -40 239 -30 254 6 10 62 36 80 37
6 0 24 -5 38 -10z m-25 -300 c0 -5 -7 -10 -15 -10 -8 0 -15 5 -15 10 0 6 7 10
15 10 8 0 15 -4 15 -10z m-11 -64 c-1 -50 -24 -172 -31 -161 -3 6 -9 41 -13
79 -4 38 -9 80 -11 93 -7 35 3 44 31 31 19 -9 25 -19 24 -42z m-2362 -41 c75
-52 18 -163 -72 -141 -63 16 -83 78 -42 128 25 32 79 38 114 13z"/>
<path d="M4683 4945 c9 -87 28 -168 37 -158 10 10 -19 194 -33 208 -6 7 -8
-10 -4 -50z"/>
<path d="M2360 3101 c38 -11 160 -12 135 -1 -11 5 -51 8 -90 8 -46 0 -61 -3
-45 -7z"/>
<path d="M4395 3100 l-120 -5 100 -8 c55 -4 113 -3 130 1 49 14 16 17 -110 12z"/>
<path d="M3318 2229 c-22 -12 -24 -59 -3 -59 8 0 15 8 16 18 0 14 2 14 9 -3 8
-19 9 -19 9 3 1 23 15 30 26 12 3 -5 1 -10 -4 -10 -6 0 -11 -4 -11 -10 0 -5 7
-6 17 -3 11 4 14 3 9 -5 -4 -7 -1 -12 8 -12 12 0 13 6 6 30 -5 17 -5 30 0 30
10 0 25 -20 25 -34 0 -5 6 -11 13 -13 21 -8 14 45 -7 57 -25 13 -91 13 -113
-1z"/>
<path d="M5571 4103 c1 -10 5 -29 9 -43 7 -21 8 -19 9 18 1 23 -3 42 -9 42 -5
0 -10 -8 -9 -17z"/>
<path d="M5260 2083 c0 -5 5 -15 10 -23 9 -13 11 -13 20 0 15 22 12 30 -10 30
-11 0 -20 -3 -20 -7z"/>
<path d="M5250 2016 c0 -22 17 -28 24 -10 9 22 8 24 -9 24 -8 0 -15 -6 -15
-14z"/>
<path d="M5250 1955 c0 -17 5 -25 13 -22 6 2 12 12 12 22 0 10 -6 20 -12 23
-8 2 -13 -6 -13 -23z"/>
<path d="M5220 1916 c0 -31 6 -34 13 -6 3 11 1 23 -4 26 -5 3 -9 -6 -9 -20z"/>
<path d="M5202 1715 c0 -16 2 -22 5 -12 2 9 2 23 0 30 -3 6 -5 -1 -5 -18z"/>
<path d="M5021 994 c0 -11 3 -14 6 -6 3 7 2 16 -1 19 -3 4 -6 -2 -5 -13z"/>
<path d="M1131 2954 c0 -11 3 -14 6 -6 3 7 2 16 -1 19 -3 4 -6 -2 -5 -13z"/>
<path d="M1717 1913 c8 -52 13 -54 13 -5 0 23 -4 42 -9 42 -6 0 -7 -17 -4 -37z"/>
<path d="M1772 1920 c0 -19 2 -27 5 -17 2 9 2 25 0 35 -3 9 -5 1 -5 -18z"/>
<path d="M1721 1834 c0 -11 3 -14 6 -6 3 7 2 16 -1 19 -3 4 -6 -2 -5 -13z"/>
<path d="M1730 1768 c0 -15 5 -30 10 -33 13 -8 13 25 0 45 -8 12 -10 9 -10
-12z"/>
<path d="M1341 1384 c0 -11 3 -14 6 -6 3 7 2 16 -1 19 -3 4 -6 -2 -5 -13z"/>
<path d="M1563 1205 c0 -22 2 -30 4 -17 2 12 2 30 0 40 -3 9 -5 -1 -4 -23z"/>
<path d="M1593 1200 c0 -25 2 -35 4 -22 2 12 2 32 0 45 -2 12 -4 2 -4 -23z"/>
<path d="M1566 1115 c4 -8 8 -15 10 -15 2 0 4 7 4 15 0 8 -4 15 -10 15 -5 0
-7 -7 -4 -15z"/>
<path d="M2418 3705 c-4 -27 -3 -70 1 -95 l7 -45 8 45 c4 25 3 68 -1 95 l-9
50 -6 -50z"/>
<path d="M4357 3663 c-3 -38 -2 -84 2 -103 7 -27 9 -11 10 68 1 56 -1 102 -3
102 -2 0 -6 -30 -9 -67z"/>
<path d="M4190 3339 c0 -5 5 -7 10 -4 6 3 10 8 10 11 0 2 -4 4 -10 4 -5 0 -10
-5 -10 -11z"/>
<path d="M4230 3339 c0 -5 5 -7 10 -4 6 3 10 8 10 11 0 2 -4 4 -10 4 -5 0 -10
-5 -10 -11z"/>
<path d="M2250 3345 c0 -8 5 -15 10 -15 6 0 10 7 10 15 0 8 -4 15 -10 15 -5 0
-10 -7 -10 -15z"/>
<path d="M2290 3340 c0 -5 5 -10 10 -10 6 0 10 5 10 10 0 6 -4 10 -10 10 -5 0
-10 -4 -10 -10z"/>
<path d="M965 3180 c-3 -5 -1 -10 4 -10 6 0 11 5 11 10 0 6 -2 10 -4 10 -3 0
-8 -4 -11 -10z"/>
<path d="M906 3154 c-4 -9 -4 -19 -1 -22 7 -8 35 19 29 29 -8 14 -21 11 -28
-7z"/>
<path d="M6610 6575 c-3 -5 -3 -53 0 -105 4 -77 7 -88 13 -60 8 35 -4 184 -13
165z"/>
<path d="M0 6464 c0 -44 6 -83 15 -100 20 -39 20 -78 0 -70 -13 5 -15 -28 -15
-254 0 -220 2 -260 14 -260 8 0 18 5 21 10 3 6 13 10 21 10 16 0 63 48 64 64
0 5 -7 17 -15 26 -31 35 -26 56 15 69 21 6 48 19 60 29 20 16 21 21 9 40 -9
15 -25 22 -53 24 -22 2 -41 9 -44 17 -3 10 3 12 24 7 23 -5 33 -2 44 14 8 11
23 20 33 20 10 0 16 4 12 9 -10 17 12 21 25 6 10 -13 9 -19 -5 -35 -14 -15
-16 -23 -7 -32 14 -14 62 -2 62 17 0 9 9 15 24 15 13 0 26 5 28 11 2 6 16 12
31 12 16 0 26 4 24 11 -2 6 -1 20 3 31 4 11 4 29 0 40 -5 13 -2 27 9 39 9 11
11 16 5 13 -7 -4 -18 0 -25 9 -12 14 -14 14 -26 -2 -7 -10 -13 -13 -13 -7 0 6
-7 13 -15 17 -8 3 -14 0 -12 -7 1 -7 -7 -12 -18 -12 -11 0 -24 -9 -30 -20 -20
-39 -59 -85 -72 -85 -8 0 -13 13 -13 38 0 21 -3 41 -6 45 -9 9 -34 -4 -34 -18
0 -14 -24 -27 -52 -30 -10 -1 -29 -10 -42 -19 -29 -18 -45 -21 -29 -5 6 6 9
18 6 26 -3 8 10 28 32 49 33 30 35 34 16 34 -18 0 -21 6 -21 38 0 21 -5 43
-10 48 -7 7 1 21 23 42 30 29 59 39 120 41 10 1 15 6 11 12 -3 6 -15 8 -26 6
-15 -4 -18 -2 -14 10 4 9 1 22 -5 29 -9 11 -6 16 12 23 l24 9 -25 6 c-14 4
-55 8 -92 9 l-68 3 0 -72z m290 -302 c-27 -4 -34 2 -26 23 5 13 8 13 26 -2
l21 -18 -21 -3z m70 24 c0 -7 -7 -19 -15 -26 -13 -11 -15 -8 -15 14 0 16 5 26
15 26 8 0 15 -6 15 -14z"/>
<path d="M273 6522 c-29 -2 -53 -7 -53 -12 0 -14 31 -17 80 -8 29 5 46 5 48
-2 2 -5 10 -10 18 -10 9 0 13 4 10 9 -4 5 0 11 6 14 20 6 -51 12 -109 9z"/>
<path d="M428 6513 c7 -3 16 -2 19 1 4 3 -2 6 -13 5 -11 0 -14 -3 -6 -6z"/>
<path d="M258 6467 c13 -6 21 -16 18 -24 -4 -9 3 -13 21 -13 26 0 26 1 7 15
-18 14 -18 14 10 15 21 0 27 -4 22 -15 -3 -9 0 -15 8 -15 8 0 16 9 19 21 6 23
27 17 27 -7 0 -10 9 -14 31 -12 17 1 33 6 35 10 3 4 11 8 17 8 7 0 6 -4 -3
-10 -10 -7 7 -10 57 -10 47 0 73 4 77 13 5 10 7 10 12 0 3 -8 25 -13 57 -12
29 0 46 3 39 6 -6 2 -10 9 -7 13 3 5 12 7 20 4 8 -4 13 -10 10 -14 -9 -14 16
-23 28 -11 8 8 8 11 -2 11 -7 0 -9 5 -6 10 3 6 22 10 42 10 20 0 33 3 29 7 -4
4 -138 8 -299 9 -215 2 -286 -1 -269 -9z m172 -18 c0 -5 -7 -9 -15 -9 -8 0
-15 7 -15 15 0 9 6 12 15 9 8 -4 15 -10 15 -15z m130 1 c0 -5 -4 -10 -10 -10
-5 0 -10 5 -10 10 0 6 5 10 10 10 6 0 10 -4 10 -10z m120 0 c0 -5 -7 -10 -15
-10 -8 0 -15 5 -15 10 0 6 7 10 15 10 8 0 15 -4 15 -10z"/>
<path d="M6572 6435 c0 -16 2 -22 5 -12 2 9 2 23 0 30 -3 6 -5 -1 -5 -18z"/>
<path d="M5530 6311 c0 -4 22 -55 49 -112 27 -57 66 -158 87 -224 36 -116 54
-157 54 -124 0 34 -95 299 -136 382 -41 81 -54 100 -54 78z"/>
<path d="M624 6275 c11 -8 34 -15 52 -15 18 0 36 -5 39 -10 4 -6 28 -10 55 -9
27 1 55 -3 62 -8 24 -19 183 -45 165 -27 -3 4 -23 10 -44 15 -21 4 -67 15
-103 24 -90 22 -201 44 -225 44 -20 0 -20 0 -1 -14z"/>
<path d="M915 6271 c-8 -14 10 -22 30 -15 13 5 14 8 3 15 -17 11 -26 11 -33 0z"/>
<path d="M1040 6270 c0 -5 12 -10 28 -10 21 0 24 2 12 10 -20 13 -40 13 -40 0z"/>
<path d="M966 6255 c-4 -11 1 -15 19 -15 16 0 25 6 25 15 0 8 -9 15 -19 15
-10 0 -21 -7 -25 -15z"/>
<path d="M1138 6263 c6 -2 18 -2 25 0 6 3 1 5 -13 5 -14 0 -19 -2 -12 -5z"/>
<path d="M2256 6197 c-10 -37 -7 -307 4 -307 5 0 10 68 12 161 3 152 -2 197
-16 146z"/>
<path d="M6290 6129 c-63 -3 -108 -6 -100 -8 22 -5 232 -3 237 2 9 10 -28 12
-137 6z"/>
<path d="M6080 6120 c0 -5 4 -10 9 -10 6 0 13 5 16 10 3 6 -1 10 -9 10 -9 0
-16 -4 -16 -10z"/>
<path d="M6720 6111 c0 -17 18 -21 24 -6 3 9 0 15 -9 15 -8 0 -15 -4 -15 -9z"/>
<path d="M6267 5920 c3 -11 7 -20 9 -20 2 0 4 9 4 20 0 11 -4 20 -9 20 -5 0
-7 -9 -4 -20z"/>
<path d="M6201 5908 c-1 -16 4 -28 9 -28 12 0 12 8 0 35 -8 18 -9 17 -9 -7z"/>
<path d="M6201 5776 c-1 -34 2 -47 9 -40 7 7 7 24 1 50 l-9 39 -1 -49z"/>
<path d="M6270 5775 c0 -8 4 -15 10 -15 5 0 7 7 4 15 -4 8 -8 15 -10 15 -2 0
-4 -7 -4 -15z"/>
<path d="M6270 5690 c0 -5 10 -10 23 -10 18 0 19 2 7 10 -19 13 -30 13 -30 0z"/>
<path d="M5750 5685 c0 -5 9 -48 19 -95 27 -117 48 -229 62 -332 7 -48 16 -85
21 -82 5 4 7 16 4 29 -3 12 -13 71 -21 131 -17 124 -59 315 -74 341 -6 10 -11
14 -11 8z"/>
<path d="M0 5654 c0 -9 7 -14 17 -12 25 5 28 28 4 28 -12 0 -21 -6 -21 -16z"/>
<path d="M4580 5656 c0 -3 33 -15 73 -27 70 -21 261 -94 361 -138 27 -12 54
-20 60 -17 11 4 -45 31 -179 88 -128 54 -315 110 -315 94z"/>
<path d="M312 5370 c0 -14 2 -19 5 -12 2 6 2 18 0 25 -3 6 -5 1 -5 -13z"/>
<path d="M6761 5304 c0 -11 3 -14 6 -6 3 7 2 16 -1 19 -3 4 -6 -2 -5 -13z"/>
<path d="M6720 5256 c0 -2 7 -7 16 -10 8 -3 12 -2 9 4 -6 10 -25 14 -25 6z"/>
<path d="M17 5208 c15 -7 30 -7 50 0 26 10 24 10 -22 11 -42 0 -46 -2 -28 -11z"/>
<path d="M6195 5170 c3 -5 13 -10 21 -10 8 0 14 5 14 10 0 6 -9 10 -21 10 -11
0 -17 -4 -14 -10z"/>
<path d="M6215 5120 c3 -5 8 -10 11 -10 2 0 4 5 4 10 0 6 -5 10 -11 10 -5 0
-7 -4 -4 -10z"/>
<path d="M6240 5121 c0 -15 102 -19 140 -5 33 12 31 13 -52 13 -49 1 -88 -3
-88 -8z"/>
<path d="M6452 5119 c2 -6 8 -10 13 -10 5 0 11 4 13 10 2 6 -4 11 -13 11 -9 0
-15 -5 -13 -11z"/>
<path d="M6298 4993 c-21 -5 -24 -19 -5 -26 17 -6 95 7 82 14 -17 10 -59 16
-77 12z"/>
<path d="M6220 4980 c0 -5 5 -10 11 -10 5 0 7 5 4 10 -3 6 -8 10 -11 10 -2 0
-4 -4 -4 -10z"/>
<path d="M765 4300 c3 -5 8 -10 11 -10 2 0 4 5 4 10 0 6 -5 10 -11 10 -5 0 -7
-4 -4 -10z"/>
<path d="M520 4200 c0 -5 5 -10 11 -10 5 0 7 5 4 10 -3 6 -8 10 -11 10 -2 0
-4 -4 -4 -10z"/>
<path d="M660 4050 c0 -5 5 -10 11 -10 5 0 7 5 4 10 -3 6 -8 10 -11 10 -2 0
-4 -4 -4 -10z"/>
<path d="M75 4001 c-3 -6 -22 -11 -41 -11 -27 0 -34 -4 -34 -19 0 -13 10 -20
36 -24 36 -6 92 8 80 20 -3 3 -1 12 5 20 8 8 8 13 1 13 -6 0 -17 3 -25 6 -8 3
-18 1 -22 -5z m-20 -31 c-3 -5 -12 -10 -20 -10 -8 0 -17 5 -20 10 -4 6 5 10
20 10 15 0 24 -4 20 -10z"/>
<path d="M168 3983 c7 -3 16 -2 19 1 4 3 -2 6 -13 5 -11 0 -14 -3 -6 -6z"/>
<path d="M320 3976 c0 -2 8 -10 18 -17 15 -13 16 -12 3 4 -13 16 -21 21 -21
13z"/>
<path d="M15 3840 c-16 -7 -11 -9 20 -9 29 -1 36 2 25 9 -17 11 -19 11 -45 0z"/>
<path d="M0 3709 c0 -5 5 -7 10 -4 5 3 10 8 10 11 0 2 -4 4 -10 4 -5 0 -10 -5
-10 -11z"/>
<path d="M595 3620 c-8 -13 15 -13 35 0 12 8 11 10 -7 10 -12 0 -25 -4 -28
-10z"/>
<path d="M530 3589 c0 -5 5 -7 10 -4 6 3 10 8 10 11 0 2 -4 4 -10 4 -5 0 -10
-5 -10 -11z"/>
<path d="M475 3570 c-3 -5 -1 -10 4 -10 6 0 11 5 11 10 0 6 -2 10 -4 10 -3 0
-8 -4 -11 -10z"/>
<path d="M410 3540 c-8 -5 -10 -10 -5 -10 6 0 17 5 25 10 8 5 11 10 5 10 -5 0
-17 -5 -25 -10z"/>
<path d="M521 3516 c-10 -12 -8 -13 8 -9 12 3 21 9 21 14 0 14 -16 11 -29 -5z"/>
<path d="M475 3499 c-4 -6 -5 -13 -2 -16 7 -7 27 6 27 18 0 12 -17 12 -25 -2z"/>
<path d="M415 3470 c-3 -5 -1 -10 4 -10 6 0 11 5 11 10 0 6 -2 10 -4 10 -3 0
-8 -4 -11 -10z"/>
<path d="M585 3470 c-3 -5 1 -10 9 -10 9 0 16 5 16 10 0 6 -4 10 -9 10 -6 0
-13 -4 -16 -10z"/>
<path d="M125 3420 c-3 -5 -2 -10 4 -10 5 0 13 5 16 10 3 6 2 10 -4 10 -5 0
-13 -4 -16 -10z"/>
<path d="M420 3394 c0 -8 5 -12 10 -9 6 4 8 11 5 16 -9 14 -15 11 -15 -7z"/>
<path d="M20 3380 c-28 -22 -24 -25 14 -10 14 5 26 14 26 20 0 15 -12 12 -40
-10z"/>
<path d="M976 2799 c-14 -11 -26 -25 -26 -30 0 -16 42 1 70 27 24 23 24 24 4
24 -12 0 -33 -9 -48 -21z"/>
<path d="M80 2376 c0 -2 7 -6 15 -10 8 -3 15 -1 15 4 0 6 -7 10 -15 10 -8 0
-15 -2 -15 -4z"/>
<path d="M328 2373 c7 -3 16 -2 19 1 4 3 -2 6 -13 5 -11 0 -14 -3 -6 -6z"/>
<path d="M430 2330 c-9 -6 -10 -10 -3 -10 6 0 15 5 18 10 8 12 4 12 -15 0z"/>
<path d="M396 2303 c-6 -14 -5 -15 5 -6 7 7 10 15 7 18 -3 3 -9 -2 -12 -12z"/>
<path d="M187 2240 c-47 -49 -32 -62 16 -15 20 19 41 35 47 35 5 0 10 5 10 10
0 22 -37 7 -73 -30z"/>
<path d="M4300 1301 c0 -11 5 -23 10 -26 6 -3 10 3 10 14 0 11 -4 23 -10 26
-5 3 -10 -3 -10 -14z"/>
<path d="M4330 1181 c0 -5 5 -13 10 -16 6 -3 10 -2 10 4 0 5 -4 13 -10 16 -5
3 -10 2 -10 -4z"/>
<path d="M1690 650 c0 -11 5 -20 10 -20 6 0 10 9 10 20 0 11 -4 20 -10 20 -5
0 -10 -9 -10 -20z"/>
<path d="M5167 573 c-10 -9 -8 -43 2 -43 5 0 11 11 13 25 5 24 -2 32 -15 18z"/>
<path d="M5128 415 c-4 -11 -9 -36 -13 -55 -4 -19 -24 -106 -46 -194 -34 -137
-41 -183 -25 -165 10 11 97 390 94 411 -3 21 -4 22 -10 3z"/>
</g>
</svg>
